<svg xmlns="http://www.w3.org/2000/svg" viewBox="0 0 260 220" focusable="false"><g transform="translate(6 2)"><g class="vert"><ellipse cx="158" cy="70" rx="70" ry="68"/></g><g class="masse"><circle cx="158" cy="70" r="26"/></g><g class="trait"><path d="M150 212 C146 166 154 120 156 96"/><path class="fin" d="M150 212 C147 176 150 140 154 118"/><g class="vent" style="--o:158px 96px;--d:32s;--a1:-2deg;--a2:2deg"><path d="M158 46 C169 37.3 167 23.4 158 17 C149 23.4 147 37.3 158 46 Z"/><path class="fin" d="M158 43 L158 21"/><path class="fin" d="M158 43 L160.6 21.1"/><path class="fin" d="M158 43 L155.4 21.1"/><path d="M167.2 47.8 C180.7 44 184.2 30.4 178.3 21 C167.5 23.5 160.3 35.6 167.2 47.8 Z"/><path class="fin" d="M168.3 45.1 L176.8 24.7"/><path class="fin" d="M168.3 45.1 L179.1 25.8"/><path class="fin" d="M168.3 45.1 L174.4 23.8"/><path d="M175 53 C188.9 54.7 197.3 43.4 195.5 32.5 C184.6 30.7 173.3 39.1 175 53 Z"/><path class="fin" d="M177.1 50.9 L192.7 35.4"/><path class="fin" d="M177.1 50.9 L194.4 37.2"/><path class="fin" d="M177.1 50.9 L190.8 33.6"/><path d="M180.2 60.8 C192.4 67.7 204.5 60.5 207 49.7 C197.6 43.8 184 47.3 180.2 60.8 Z"/><path class="fin" d="M182.9 59.7 L203.3 51.2"/><path class="fin" d="M182.9 59.7 L204.2 53.6"/><path class="fin" d="M182.9 59.7 L202.2 48.9"/><path d="M182 70 C190.7 81 204.6 79 211 70 C204.6 61 190.7 59 182 70 Z"/><path class="fin" d="M185 70 L207 70"/><path class="fin" d="M185 70 L206.9 72.6"/><path class="fin" d="M185 70 L206.9 67.4"/><path d="M180.2 79.2 C184 92.7 197.6 96.2 207 90.3 C204.5 79.5 192.4 72.3 180.2 79.2 Z"/><path class="fin" d="M182.9 80.3 L203.3 88.8"/><path class="fin" d="M182.9 80.3 L202.2 91.1"/><path class="fin" d="M182.9 80.3 L204.2 86.4"/><path d="M175 87 C173.3 100.9 184.6 109.3 195.5 107.5 C197.3 96.6 188.9 85.3 175 87 Z"/><path class="fin" d="M177.1 89.1 L192.7 104.7"/><path class="fin" d="M177.1 89.1 L190.8 106.4"/><path class="fin" d="M177.1 89.1 L194.4 102.8"/><path d="M167.2 92.2 C160.3 104.4 167.5 116.5 178.3 119 C184.2 109.6 180.7 96 167.2 92.2 Z"/><path class="fin" d="M168.3 94.9 L176.8 115.3"/><path class="fin" d="M168.3 94.9 L174.4 116.2"/><path class="fin" d="M168.3 94.9 L179.1 114.2"/><path d="M158 94 C147 102.7 149 116.6 158 123 C167 116.6 169 102.7 158 94 Z"/><path class="fin" d="M158 97 L158 119"/><path class="fin" d="M158 97 L155.4 118.9"/><path class="fin" d="M158 97 L160.6 118.9"/><path d="M148.8 92.2 C135.3 96 131.8 109.6 137.7 119 C148.5 116.5 155.7 104.4 148.8 92.2 Z"/><path class="fin" d="M147.7 94.9 L139.2 115.3"/><path class="fin" d="M147.7 94.9 L136.9 114.2"/><path class="fin" d="M147.7 94.9 L141.6 116.2"/><path d="M141 87 C127.1 85.3 118.7 96.6 120.5 107.5 C131.4 109.3 142.7 100.9 141 87 Z"/><path class="fin" d="M138.9 89.1 L123.3 104.7"/><path class="fin" d="M138.9 89.1 L121.6 102.8"/><path class="fin" d="M138.9 89.1 L125.2 106.4"/><path d="M135.8 79.2 C123.6 72.3 111.5 79.5 109 90.3 C118.4 96.2 132 92.7 135.8 79.2 Z"/><path class="fin" d="M133.1 80.3 L112.7 88.8"/><path class="fin" d="M133.1 80.3 L111.8 86.4"/><path class="fin" d="M133.1 80.3 L113.8 91.1"/><path d="M134 70 C125.3 59 111.4 61 105 70 C111.4 79 125.3 81 134 70 Z"/><path class="fin" d="M131 70 L109 70"/><path class="fin" d="M131 70 L109.1 67.4"/><path class="fin" d="M131 70 L109.1 72.6"/><path d="M135.8 60.8 C132 47.3 118.4 43.8 109 49.7 C111.5 60.5 123.6 67.7 135.8 60.8 Z"/><path class="fin" d="M133.1 59.7 L112.7 51.2"/><path class="fin" d="M133.1 59.7 L113.8 48.9"/><path class="fin" d="M133.1 59.7 L111.8 53.6"/><path d="M141 53 C142.7 39.1 131.4 30.7 120.5 32.5 C118.7 43.4 127.1 54.7 141 53 Z"/><path class="fin" d="M138.9 50.9 L123.3 35.4"/><path class="fin" d="M138.9 50.9 L125.2 33.6"/><path class="fin" d="M138.9 50.9 L121.6 37.2"/><path d="M148.8 47.8 C155.7 35.6 148.5 23.5 137.7 21 C131.8 30.4 135.3 44 148.8 47.8 Z"/><path class="fin" d="M147.7 45.1 L139.2 24.7"/><path class="fin" d="M147.7 45.1 L141.6 23.8"/><path class="fin" d="M147.7 45.1 L136.9 25.8"/><path class="fin" d="M162.3 48.4 C172.2 44.6 172.4 35.3 166 29.8 C158 32.5 154.6 41.1 162.3 48.4 Z"/><path class="fin" d="M170.2 51.7 C180.9 52 184.6 43.5 180.8 35.9 C172.3 35.3 165.9 42 170.2 51.7 Z"/><path class="fin" d="M176.3 57.8 C186 62.1 192.7 55.7 192.1 47.2 C184.5 43.4 176.1 47.1 176.3 57.8 Z"/><path class="fin" d="M179.6 65.7 C186.9 73.5 195.6 70.1 198.2 62 C192.7 55.6 183.4 55.8 179.6 65.7 Z"/><path class="fin" d="M179.6 74.3 C183.4 84.2 192.7 84.5 198.2 78 C195.6 70 186.9 66.6 179.6 74.3 Z"/><path class="fin" d="M176.3 82.2 C176 92.9 184.5 96.6 192.1 92.8 C192.7 84.3 186 77.9 176.3 82.2 Z"/><path class="fin" d="M170.2 88.3 C165.9 98 172.3 104.7 180.8 104.1 C184.6 96.5 180.9 88 170.2 88.3 Z"/><path class="fin" d="M162.3 91.6 C154.6 98.9 157.9 107.5 166 110.2 C172.4 104.7 172.2 95.4 162.3 91.6 Z"/><path class="fin" d="M153.7 91.6 C143.8 95.4 143.6 104.7 150 110.2 C158 107.5 161.4 98.9 153.7 91.6 Z"/><path class="fin" d="M145.8 88.3 C135.1 88 131.4 96.5 135.2 104.1 C143.7 104.7 150.1 98 145.8 88.3 Z"/><path class="fin" d="M139.7 82.2 C130 77.9 123.3 84.3 123.9 92.8 C131.5 96.6 139.9 92.9 139.7 82.2 Z"/><path class="fin" d="M136.4 74.3 C129.1 66.5 120.5 69.9 117.8 78 C123.3 84.4 132.6 84.2 136.4 74.3 Z"/><path class="fin" d="M136.4 65.7 C132.6 55.8 123.3 55.5 117.8 62 C120.5 70 129.1 73.4 136.4 65.7 Z"/><path class="fin" d="M139.7 57.8 C140 47.1 131.5 43.4 123.9 47.2 C123.3 55.6 130 62.1 139.7 57.8 Z"/><path class="fin" d="M145.8 51.7 C150.1 42 143.7 35.3 135.2 35.9 C131.4 43.5 135.1 52 145.8 51.7 Z"/><path class="fin" d="M153.7 48.4 C161.4 41.1 158.1 32.5 150 29.8 C143.6 35.3 143.8 44.6 153.7 48.4 Z"/><circle cx="158" cy="70" r="23"/><circle class="fin" cx="158" cy="70" r="13"/><circle class="pt" cx="158" cy="70" r="1.1"/><circle class="pt" cx="156" cy="71.8" r="1.1"/><circle class="pt" cx="158.3" cy="66.2" r="1.1"/><circle class="pt" cx="160.8" cy="73.7" r="1.1"/><circle class="pt" cx="152.7" cy="69.1" r="1.1"/><circle class="pt" cx="163.1" cy="66.8" r="1.1"/><circle class="pt" cx="156.3" cy="76.4" r="1.1"/><circle class="pt" cx="154.7" cy="63.7" r="1.1"/><circle class="pt" cx="165.1" cy="72.6" r="1.1"/><circle class="pt" cx="150.6" cy="73.1" r="1.1"/><circle class="pt" cx="161.6" cy="62.3" r="1.1"/><circle class="pt" cx="160.7" cy="78.5" r="1.1"/><circle class="pt" cx="149.9" cy="65.3" r="1.1"/><circle class="pt" cx="167.5" cy="67.9" r="1.1"/><circle class="pt" cx="152.2" cy="78.2" r="1.1"/><circle class="pt" cx="156.6" cy="59.7" r="1.1"/><circle class="pt" cx="166.2" cy="76.9" r="1.1"/><circle class="pt" cx="146.9" cy="70.5" r="1.1"/><circle class="pt" cx="166.1" cy="61.9" r="1.1"/><circle class="pt" cx="157.5" cy="81.7" r="1.1"/><circle class="pt" cx="150.3" cy="60.8" r="1.1"/><circle class="pt" cx="170.2" cy="71.6" r="1.1"/><circle class="pt" cx="147.7" cy="77.2" r="1.1"/><circle class="pt" cx="160.8" cy="57.4" r="1.1"/><circle class="pt" cx="164.6" cy="81.4" r="1.1"/><circle class="pt" cx="145.2" cy="66" r="1.1"/><circle class="pt" cx="170.4" cy="64.2" r="1.1"/><circle class="pt" cx="152.7" cy="82.9" r="1.1"/><circle class="pt" cx="153.1" cy="56.6" r="1.1"/><circle class="pt" cx="170.8" cy="76.7" r="1.1"/><circle class="pt" cx="143.8" cy="73.8" r="1.1"/><circle class="pt" cx="166" cy="57.4" r="1.1"/><circle class="pt" cx="160.6" cy="85" r="1.1"/><circle class="pt" cx="145.8" cy="60.6" r="1.1"/><circle class="pt" cx="173.6" cy="68.6" r="1.1"/><circle class="pt" cx="147.3" cy="81.7" r="1.1"/><circle class="pt" cx="158" cy="53.9" r="1.1"/><circle class="pt" cx="169" cy="82.1" r="1.1"/><circle class="pt" cx="141.5" cy="68.6" r="1.1"/><circle class="pt" cx="171.3" cy="59.8" r="1.1"/><circle class="pt" cx="155" cy="86.7" r="1.1"/><circle class="pt" cx="148.8" cy="55.5" r="1.1"/><circle class="pt" cx="174.8" cy="74.5" r="1.1"/><circle class="pt" cx="142.4" cy="78.1" r="1.1"/><circle class="pt" cx="164.1" cy="53.2" r="1.1"/><circle class="pt" cx="164.9" cy="86.7" r="1.1"/><circle class="pt" cx="141.5" cy="62.3" r="1.1"/><circle class="pt" cx="175.6" cy="64.5" r="1.1"/><circle class="pt" cx="148.7" cy="86.1" r="1.1"/><circle class="pt" cx="153.9" cy="51.6" r="1.1"/><circle class="pt" cx="173.6" cy="80.9" r="1.1"/><circle class="pt" cx="139" cy="72.5" r="1.1"/><circle class="pt" cx="170.5" cy="55.2" r="1.1"/><circle class="pt" cx="158.9" cy="89.5" r="1.1"/><circle class="pt" cx="144" cy="56" r="1.1"/><circle class="pt" cx="177.9" cy="70.9" r="1.1"/><circle class="pt" cx="142.6" cy="82.9" r="1.1"/><circle class="pt" cx="160.6" cy="49.9" r="1.1"/><circle class="pt" cx="169.7" cy="86.8" r="1.1"/><circle class="pt" cx="137.8" cy="65.5" r="1.1"/><circle class="pt" cx="176" cy="59.6" r="1.1"/><circle class="pt" cx="151.7" cy="90" r="1.1"/><circle class="pt" cx="149.1" cy="50.8" r="1.1"/><circle class="pt" cx="177.7" cy="78.2" r="1.1"/></g><path class="fin" d="M150 148 l-7.3 3.2"/><g class="vent" style="--o:150px 148px;--d:26s;--a1:-1.2deg;--a2:1.2deg;--r:-0s"><path class="apl" d="M138.5 141.9 L137.6 141.6 L136.8 141.4 L136 141.2 L135.2 141.1 L134.4 140.9 L133.6 140.9 L132.5 140 L131.7 140 L130.9 140 L130.2 140 L129.4 140 L128.7 140.1 L128 140.1 L126.9 139.3 L126.2 139.4 L125.5 139.5 L124.8 139.7 L124.1 139.9 L123.5 140.1 L122.8 140.3 L121.7 139.4 L121.1 139.7 L120.4 139.9 L119.8 140.2 L119.2 140.5 L118.6 140.8 L118 141.1 L116.9 140.4 L116.3 140.7 L115.7 141.1 L115.1 141.5 L114.6 141.9 L114 142.3 L113.4 142.8 L112.4 142.1 L111.9 142.5 L111.3 143 L110.8 143.5 L110.3 144 L109.8 144.6 L109.3 145.1 L108.3 144.6 L107.8 145.1 L107.3 145.7 L106.8 146.3 L106.3 146.9 L105.8 147.6 L105.4 148.2 L104.5 147.8 L104 148.5 L103.6 149.2 L103.1 149.9 L102.7 150.6 L102.3 151.3 L101.9 152.1 L101 151.9 L100.6 152.7 L100.2 153.5 L99.8 154.3 L99.5 155.1 L99.1 155.9 L98.7 156.7 L98 156.9 L97.7 157.8 L97.3 158.7 L97 159.6 L96.7 160.6 L96.3 161.5 L96 162.5 L95.5 163.1 L95.3 164.2 L95.1 165.4 L94.9 166.7 L94.7 168 L94.7 169.6 L95.2 172.4 L95.2 172.4 L96.9 174.6 L98.1 175.7 L99.3 176.5 L100.3 177.2 L101.3 177.8 L102.3 178.4 L103.1 178.4 L104 178.8 L105 179.2 L105.9 179.6 L106.8 180 L107.7 180.4 L108.6 180.7 L109.2 180.3 L110.1 180.6 L110.9 180.8 L111.8 181.1 L112.6 181.3 L113.5 181.6 L114.3 181.8 L114.8 181.1 L115.6 181.2 L116.4 181.4 L117.2 181.6 L118.1 181.7 L118.9 181.8 L119.7 182 L120 181 L120.8 181.1 L121.6 181.2 L122.3 181.2 L123.1 181.3 L123.9 181.3 L124.6 181.3 L124.9 180.2 L125.6 180.2 L126.4 180.2 L127.1 180.1 L127.8 180.1 L128.5 180 L129.2 179.9 L129.4 178.7 L130.1 178.5 L130.8 178.4 L131.5 178.3 L132.2 178.1 L132.8 177.9 L133.5 177.7 L133.7 176.4 L134.3 176.2 L135 175.9 L135.6 175.7 L136.2 175.4 L136.8 175.1 L137.4 174.8 L137.6 173.4 L138.2 173 L138.7 172.7 L139.3 172.3 L139.9 171.9 L140.5 171.5 L141 171 L141.1 169.6 L141.7 169.1 L142.2 168.6 L142.7 168.1 L143.2 167.6 L143.7 167 L144.2 166.4 L144.3 165 L144.8 164.3 L145.2 163.7 L145.7 163 L146.1 162.2 L146.5 161.5 L146.9 160.6 Z"/><path class="fin" d="M142.7 151.2 L95.2 172.4"/><path class="fin" d="M136 154.2 Q129.5 147.2 121.1 146.2"/><path class="fin" d="M136 154.2 Q136.9 163.7 132 170.7"/><path class="fin" d="M125.6 158.9 Q118.2 149.9 109.3 148"/><path class="fin" d="M125.6 158.9 Q127.3 170.3 122.8 178.2"/><path class="fin" d="M115.1 163.5 Q107.7 154.5 98.8 152.5"/><path class="fin" d="M115.1 163.5 Q116.9 175.1 112.4 183"/><path class="fin" d="M104.7 168.2 Q98.6 162.2 90.4 161.7"/><path class="fin" d="M104.7 168.2 Q105 176.7 100 183.1"/></g><path class="fin" d="M150 188 l7.4 3"/><g class="vent" style="--o:150px 188px;--d:30s;--a1:-1.2deg;--a2:1.2deg;--r:-9s"><path class="apl" d="M154 199.4 L154.4 200.1 L154.8 200.8 L155.2 201.5 L155.6 202.1 L156 202.6 L156.4 203.2 L156.6 204.4 L157 204.9 L157.5 205.4 L157.9 205.9 L158.4 206.3 L158.9 206.8 L159.4 207.2 L159.5 208.4 L160 208.8 L160.5 209.1 L161 209.5 L161.6 209.8 L162.1 210.1 L162.6 210.4 L162.8 211.6 L163.3 211.9 L163.9 212.1 L164.5 212.4 L165 212.6 L165.6 212.8 L166.2 212.9 L166.4 214.1 L166.9 214.3 L167.5 214.4 L168.1 214.5 L168.8 214.6 L169.4 214.7 L170 214.8 L170.2 215.9 L170.8 216 L171.5 216 L172.1 216 L172.8 216.1 L173.4 216.1 L174.1 216 L174.3 217 L175 217 L175.7 216.9 L176.3 216.9 L177 216.8 L177.7 216.7 L178.4 216.6 L178.7 217.4 L179.4 217.3 L180.1 217.2 L180.9 217 L181.6 216.8 L182.3 216.7 L183 216.5 L183.4 217.1 L184.2 216.9 L184.9 216.7 L185.7 216.4 L186.4 216.2 L187.2 215.9 L187.9 215.6 L188.4 216 L189.2 215.7 L190 215.3 L190.8 214.9 L191.6 214.6 L192.4 214.2 L193.3 213.8 L193.9 213.7 L194.8 213.2 L195.7 212.6 L196.6 212 L197.6 211.2 L198.6 210.2 L200.1 208.2 L200.1 208.2 L200.4 205.8 L200.3 204.3 L200.2 203.1 L200 202 L199.7 201 L199.5 200 L199 199.5 L198.7 198.7 L198.4 197.8 L198.1 197 L197.8 196.2 L197.4 195.4 L197.1 194.6 L196.5 194.5 L196.1 193.8 L195.8 193 L195.4 192.3 L195 191.6 L194.6 191 L194.3 190.3 L193.5 190.4 L193.1 189.8 L192.7 189.2 L192.3 188.6 L191.9 188 L191.5 187.4 L191.1 186.8 L190.3 187.1 L189.9 186.6 L189.4 186.1 L189 185.5 L188.6 185 L188.1 184.5 L187.7 184 L186.8 184.5 L186.3 184.1 L185.9 183.6 L185.4 183.2 L184.9 182.8 L184.4 182.3 L183.9 182 L183 182.6 L182.5 182.2 L182 181.9 L181.5 181.5 L181 181.2 L180.4 180.9 L179.9 180.6 L179 181.3 L178.4 181 L177.9 180.8 L177.3 180.5 L176.8 180.3 L176.2 180.1 L175.6 179.9 L174.6 180.7 L174.1 180.5 L173.5 180.3 L172.9 180.2 L172.3 180.1 L171.6 180 L171 179.9 L170.1 180.7 L169.4 180.7 L168.8 180.6 L168.1 180.6 L167.5 180.7 L166.8 180.7 L166.1 180.8 L165.2 181.5 L164.5 181.6 L163.8 181.8 L163.1 181.9 L162.3 182.1 L161.6 182.3 L160.8 182.6 Z"/><path class="fin" d="M157.4 191 L200.1 208.2"/><path class="fin" d="M163.4 193.4 Q163 201.8 167.5 207.8"/><path class="fin" d="M163.4 193.4 Q168.9 187 176.4 185.9"/><path class="fin" d="M172.8 197.2 Q171.6 207.4 175.8 214.2"/><path class="fin" d="M172.8 197.2 Q179 189.1 186.8 187.1"/><path class="fin" d="M182.2 201 Q181 211.3 185.2 218.1"/><path class="fin" d="M182.2 201 Q188.4 192.8 196.2 190.7"/><path class="fin" d="M191.5 204.8 Q191.5 212.3 196.2 217.8"/><path class="fin" d="M191.5 204.8 Q196.7 199.3 203.9 198.6"/></g><circle class="pollen" cx="158" cy="46" r="1.2" style="--dx:12px;--dy:-34px;animation-duration:25s;animation-delay:-0s"/><circle class="pollen" cx="140" cy="58" r="1.1" style="--dx:-13px;--dy:-38px;animation-duration:29s;animation-delay:-3.7s"/><circle class="pollen" cx="176" cy="60" r="1.1" style="--dx:15px;--dy:-32px;animation-duration:22s;animation-delay:-7.4s"/><circle class="pollen" cx="150" cy="36" r="1" style="--dx:-9px;--dy:-42px;animation-duration:32s;animation-delay:-11.1s"/><g class="chute" style="--dx:-24px;--dy:76px;--rot:90deg;--d:34s;--r:-6s"><path d="M158 18 C148.4 23.6 148.9 34.3 155.7 39.9 C163.6 35.8 166.3 25.5 158 18 Z"/></g></g></g></svg>