<svg xmlns="http://www.w3.org/2000/svg" viewBox="0 0 260 220" focusable="false"><g transform="translate(10 -2)"><g class="vert"><ellipse cx="154" cy="92" rx="70" ry="46"/></g><g class="masse"><ellipse cx="154" cy="76" rx="52" ry="26"/><ellipse cx="114" cy="128" rx="26" ry="14"/></g><g class="trait"><path d="M168 216 C166 186 162 160 158 138 C156 122 152 92 154 84"/><path class="fin" d="M168 216 C165 188 161 162 157 140"/><path d="M158.4 138 C144 136 126 130 118 132"/><path class="fin" d="M156 142 q6 -5 7 -10 m-7 10 q-7 -4 -9 -9"/><g class="souffle" style="--o:154px 78px;--d:28s"><path class="fin" d="M154 82 Q130.4 75.9 108.7 72.7"/><circle class="pt" cx="108.7" cy="72.7" r="1"/><circle class="pt" cx="111.8" cy="73.4" r="1"/><circle class="pt" cx="110.1" cy="75.6" r="1"/><circle class="pt" cx="107.3" cy="75.6" r="1"/><circle class="pt" cx="105.6" cy="73.5" r="1"/><circle class="pt" cx="106.2" cy="70.8" r="1"/><circle class="pt" cx="108.7" cy="69.5" r="1"/><circle class="pt" cx="111.2" cy="70.7" r="1"/><circle class="fin" fill="none" cx="108.7" cy="72.7" r="4"/><path class="fin" d="M154 82 Q125.7 72.8 99.5 64.9"/><circle class="pt" cx="99.5" cy="64.9" r="1.2"/><circle class="pt" cx="103.4" cy="65.7" r="1.2"/><circle class="pt" cx="101.3" cy="68.5" r="1.2"/><circle class="pt" cx="97.9" cy="68.5" r="1.2"/><circle class="pt" cx="95.7" cy="65.9" r="1.2"/><circle class="pt" cx="96.4" cy="62.5" r="1.2"/><circle class="pt" cx="99.5" cy="60.9" r="1.2"/><circle class="pt" cx="102.6" cy="62.4" r="1.2"/><circle class="fin" fill="none" cx="99.5" cy="64.9" r="4.9"/><path class="fin" d="M154 82 Q133.9 72.2 115.3 63.2"/><circle class="pt" cx="115.3" cy="63.2" r="1.2"/><circle class="pt" cx="119.2" cy="64.1" r="1.2"/><circle class="pt" cx="117" cy="66.8" r="1.2"/><circle class="pt" cx="113.6" cy="66.9" r="1.2"/><circle class="pt" cx="111.4" cy="64.2" r="1.2"/><circle class="pt" cx="112.1" cy="60.8" r="1.2"/><circle class="pt" cx="115.2" cy="59.3" r="1.2"/><circle class="pt" cx="118.3" cy="60.7" r="1.2"/><circle class="fin" fill="none" cx="115.3" cy="63.2" r="4.9"/><path class="fin" d="M154 82 Q134.7 69.9 117 57.5"/><circle class="pt" cx="117" cy="57.5" r="1"/><circle class="pt" cx="120.1" cy="58.1" r="1"/><circle class="pt" cx="118.4" cy="60.4" r="1"/><circle class="pt" cx="115.6" cy="60.4" r="1"/><circle class="pt" cx="113.8" cy="58.2" r="1"/><circle class="pt" cx="114.4" cy="55.5" r="1"/><circle class="pt" cx="116.9" cy="54.3" r="1"/><circle class="pt" cx="119.4" cy="55.4" r="1"/><circle class="fin" fill="none" cx="117" cy="57.5" r="4"/><path class="fin" d="M154 82 Q137.8 68.3 122.8 53.5"/><circle class="pt" cx="122.8" cy="53.5" r="1.2"/><circle class="pt" cx="126.7" cy="54.3" r="1.2"/><circle class="pt" cx="124.6" cy="57" r="1.2"/><circle class="pt" cx="121.2" cy="57.1" r="1.2"/><circle class="pt" cx="119" cy="54.4" r="1.2"/><circle class="pt" cx="119.7" cy="51.1" r="1.2"/><circle class="pt" cx="122.8" cy="49.5" r="1.2"/><circle class="pt" cx="125.9" cy="51" r="1.2"/><circle class="fin" fill="none" cx="122.8" cy="53.5" r="4.9"/><path class="fin" d="M154 82 Q139.2 65.2 125.5 45.4"/><circle class="pt" cx="125.5" cy="45.4" r="1.2"/><circle class="pt" cx="129.4" cy="46.2" r="1.2"/><circle class="pt" cx="127.3" cy="49" r="1.2"/><circle class="pt" cx="123.8" cy="49" r="1.2"/><circle class="pt" cx="121.6" cy="46.4" r="1.2"/><circle class="pt" cx="122.3" cy="43" r="1.2"/><circle class="pt" cx="125.4" cy="41.4" r="1.2"/><circle class="pt" cx="128.6" cy="42.9" r="1.2"/><circle class="fin" fill="none" cx="125.5" cy="45.4" r="5"/><path class="fin" d="M154 82 Q146.4 67.6 139.5 51.6"/><circle class="pt" cx="139.5" cy="51.6" r="1"/><circle class="pt" cx="142.6" cy="52.3" r="1"/><circle class="pt" cx="140.9" cy="54.5" r="1"/><circle class="pt" cx="138.1" cy="54.6" r="1"/><circle class="pt" cx="136.3" cy="52.4" r="1"/><circle class="pt" cx="136.9" cy="49.7" r="1"/><circle class="pt" cx="139.4" cy="48.4" r="1"/><circle class="pt" cx="142" cy="49.6" r="1"/><circle class="fin" fill="none" cx="139.5" cy="51.6" r="4"/><path class="fin" d="M154 82 Q149.5 65.2 145.3 45.6"/><circle class="pt" cx="145.3" cy="45.6" r="1.2"/><circle class="pt" cx="149.2" cy="46.4" r="1.2"/><circle class="pt" cx="147.1" cy="49.1" r="1.2"/><circle class="pt" cx="143.7" cy="49.1" r="1.2"/><circle class="pt" cx="141.5" cy="46.5" r="1.2"/><circle class="pt" cx="142.2" cy="43.1" r="1.2"/><circle class="pt" cx="145.3" cy="41.6" r="1.2"/><circle class="pt" cx="148.4" cy="43" r="1.2"/><circle class="fin" fill="none" cx="145.3" cy="45.6" r="4.9"/><path class="fin" d="M154 82 Q154 64.9 154 44.8"/><circle class="pt" cx="154" cy="44.8" r="1.2"/><circle class="pt" cx="157.9" cy="45.6" r="1.2"/><circle class="pt" cx="155.8" cy="48.4" r="1.2"/><circle class="pt" cx="152.3" cy="48.4" r="1.2"/><circle class="pt" cx="150.1" cy="45.8" r="1.2"/><circle class="pt" cx="150.8" cy="42.4" r="1.2"/><circle class="pt" cx="153.9" cy="40.8" r="1.2"/><circle class="pt" cx="157.1" cy="42.3" r="1.2"/><circle class="fin" fill="none" cx="154" cy="44.8" r="5"/><path class="fin" d="M154 82 Q159 63.9 163.6 42.3"/><circle class="pt" cx="163.6" cy="42.3" r="1"/><circle class="pt" cx="166.7" cy="42.9" r="1"/><circle class="pt" cx="165" cy="45.2" r="1"/><circle class="pt" cx="162.2" cy="45.2" r="1"/><circle class="pt" cx="160.4" cy="43" r="1"/><circle class="pt" cx="161" cy="40.3" r="1"/><circle class="pt" cx="163.5" cy="39" r="1"/><circle class="pt" cx="166.1" cy="40.2" r="1"/><circle class="fin" fill="none" cx="163.6" cy="42.3" r="4"/><path class="fin" d="M154 82 Q161.3 67.9 168.1 52.5"/><circle class="pt" cx="168.1" cy="52.5" r="1.2"/><circle class="pt" cx="172" cy="53.3" r="1.2"/><circle class="pt" cx="169.9" cy="56" r="1.2"/><circle class="pt" cx="166.4" cy="56" r="1.2"/><circle class="pt" cx="164.2" cy="53.4" r="1.2"/><circle class="pt" cx="165" cy="50" r="1.2"/><circle class="pt" cx="168" cy="48.5" r="1.2"/><circle class="pt" cx="171.1" cy="49.9" r="1.2"/><circle class="fin" fill="none" cx="168.1" cy="52.5" r="4.9"/><path class="fin" d="M154 82 Q167.6 66.2 180.1 48.1"/><circle class="pt" cx="180.1" cy="48.1" r="1.2"/><circle class="pt" cx="184.1" cy="49" r="1.2"/><circle class="pt" cx="181.9" cy="51.7" r="1.2"/><circle class="pt" cx="178.4" cy="51.8" r="1.2"/><circle class="pt" cx="176.2" cy="49.1" r="1.2"/><circle class="pt" cx="177" cy="45.7" r="1.2"/><circle class="pt" cx="180.1" cy="44.1" r="1.2"/><circle class="pt" cx="183.2" cy="45.6" r="1.2"/><circle class="fin" fill="none" cx="180.1" cy="48.1" r="5"/><path class="fin" d="M154 82 Q171.1 67.8 186.8 52.2"/><circle class="pt" cx="186.8" cy="52.2" r="1"/><circle class="pt" cx="190" cy="52.9" r="1"/><circle class="pt" cx="188.2" cy="55.1" r="1"/><circle class="pt" cx="185.4" cy="55.2" r="1"/><circle class="pt" cx="183.6" cy="53" r="1"/><circle class="pt" cx="184.2" cy="50.2" r="1"/><circle class="pt" cx="186.7" cy="49" r="1"/><circle class="pt" cx="189.3" cy="50.1" r="1"/><circle class="fin" fill="none" cx="186.8" cy="52.2" r="4"/><path class="fin" d="M154 82 Q174.9 69.2 194.2 55.8"/><circle class="pt" cx="194.2" cy="55.8" r="1.2"/><circle class="pt" cx="198" cy="56.6" r="1.2"/><circle class="pt" cx="195.9" cy="59.3" r="1.2"/><circle class="pt" cx="192.5" cy="59.3" r="1.2"/><circle class="pt" cx="190.3" cy="56.7" r="1.2"/><circle class="pt" cx="191.1" cy="53.3" r="1.2"/><circle class="pt" cx="194.1" cy="51.8" r="1.2"/><circle class="pt" cx="197.2" cy="53.2" r="1.2"/><circle class="fin" fill="none" cx="194.2" cy="55.8" r="4.9"/><path class="fin" d="M154 82 Q172.5 72.7 189.6 64.4"/><circle class="pt" cx="189.6" cy="64.4" r="1.2"/><circle class="pt" cx="193.6" cy="65.3" r="1.2"/><circle class="pt" cx="191.4" cy="68" r="1.2"/><circle class="pt" cx="187.9" cy="68.1" r="1.2"/><circle class="pt" cx="185.7" cy="65.4" r="1.2"/><circle class="pt" cx="186.5" cy="62" r="1.2"/><circle class="pt" cx="189.6" cy="60.4" r="1.2"/><circle class="pt" cx="192.7" cy="61.9" r="1.2"/><circle class="fin" fill="none" cx="189.6" cy="64.4" r="5"/><path class="fin" d="M154 82 Q180.8 73.1 205.5 65.6"/><circle class="pt" cx="205.5" cy="65.6" r="1"/><circle class="pt" cx="208.7" cy="66.3" r="1"/><circle class="pt" cx="207" cy="68.6" r="1"/><circle class="pt" cx="204.1" cy="68.6" r="1"/><circle class="pt" cx="202.3" cy="66.4" r="1"/><circle class="pt" cx="202.9" cy="63.6" r="1"/><circle class="pt" cx="205.4" cy="62.4" r="1"/><circle class="pt" cx="208" cy="63.5" r="1"/><circle class="fin" fill="none" cx="205.5" cy="65.6" r="4.1"/><path class="fin" d="M154 82 Q179.8 75.7 203.6 72.2"/><circle class="pt" cx="203.6" cy="72.2" r="1.2"/><circle class="pt" cx="207.5" cy="73" r="1.2"/><circle class="pt" cx="205.4" cy="75.7" r="1.2"/><circle class="pt" cx="202" cy="75.8" r="1.2"/><circle class="pt" cx="199.8" cy="73.2" r="1.2"/><circle class="pt" cx="200.5" cy="69.8" r="1.2"/><circle class="pt" cx="203.6" cy="68.3" r="1.2"/><circle class="pt" cx="206.7" cy="69.7" r="1.2"/><circle class="fin" fill="none" cx="203.6" cy="72.2" r="4.9"/></g><g class="souffle" style="--o:114px 128px;--d:32s;--r:-11s"><path class="fin" d="M114 130 Q102 126.1 90 123.2"/><circle class="pt" cx="90" cy="123.2" r="0.7"/><circle class="pt" cx="92.1" cy="123.6" r="0.7"/><circle class="pt" cx="91" cy="125.1" r="0.7"/><circle class="pt" cx="89" cy="125.2" r="0.7"/><circle class="pt" cx="87.8" cy="123.7" r="0.7"/><circle class="pt" cx="88.2" cy="121.8" r="0.7"/><circle class="pt" cx="89.9" cy="121" r="0.7"/><circle class="pt" cx="91.7" cy="121.8" r="0.7"/><circle class="fin" fill="none" cx="90" cy="123.2" r="2.7"/><path class="fin" d="M114 130 Q101 123.8 88 117.5"/><circle class="pt" cx="88" cy="117.5" r="0.7"/><circle class="pt" cx="90.2" cy="118" r="0.7"/><circle class="pt" cx="89" cy="119.5" r="0.7"/><circle class="pt" cx="87.1" cy="119.5" r="0.7"/><circle class="pt" cx="85.9" cy="118" r="0.7"/><circle class="pt" cx="86.3" cy="116.2" r="0.7"/><circle class="pt" cx="88" cy="115.3" r="0.7"/><circle class="pt" cx="89.7" cy="116.1" r="0.7"/><circle class="fin" fill="none" cx="88" cy="117.5" r="2.7"/><path class="fin" d="M114 130 Q105 123.1 96 115.8"/><circle class="pt" cx="96" cy="115.8" r="0.7"/><circle class="pt" cx="98.2" cy="116.3" r="0.7"/><circle class="pt" cx="97" cy="117.8" r="0.7"/><circle class="pt" cx="95.1" cy="117.8" r="0.7"/><circle class="pt" cx="93.9" cy="116.4" r="0.7"/><circle class="pt" cx="94.3" cy="114.5" r="0.7"/><circle class="pt" cx="96" cy="113.6" r="0.7"/><circle class="pt" cx="97.7" cy="114.5" r="0.7"/><circle class="fin" fill="none" cx="96" cy="115.8" r="2.7"/><path class="fin" d="M114 130 Q106 120.9 98.1 110.2"/><circle class="pt" cx="98.1" cy="110.2" r="0.7"/><circle class="pt" cx="100.2" cy="110.7" r="0.7"/><circle class="pt" cx="99.1" cy="112.2" r="0.7"/><circle class="pt" cx="97.2" cy="112.2" r="0.7"/><circle class="pt" cx="96" cy="110.7" r="0.7"/><circle class="pt" cx="96.4" cy="108.8" r="0.7"/><circle class="pt" cx="98.1" cy="108" r="0.7"/><circle class="pt" cx="99.8" cy="108.8" r="0.7"/><circle class="fin" fill="none" cx="98.1" cy="110.2" r="2.7"/><path class="fin" d="M114 130 Q110.1 121.3 106.3 111.4"/><circle class="pt" cx="106.3" cy="111.4" r="0.7"/><circle class="pt" cx="108.4" cy="111.8" r="0.7"/><circle class="pt" cx="107.3" cy="113.3" r="0.7"/><circle class="pt" cx="105.3" cy="113.3" r="0.7"/><circle class="pt" cx="104.1" cy="111.9" r="0.7"/><circle class="pt" cx="104.5" cy="110" r="0.7"/><circle class="pt" cx="106.2" cy="109.2" r="0.7"/><circle class="pt" cx="108" cy="110" r="0.7"/><circle class="fin" fill="none" cx="106.3" cy="111.4" r="2.7"/><path class="fin" d="M114 130 Q113 119.6 111.9 107"/><circle class="pt" cx="111.9" cy="107" r="0.7"/><circle class="pt" cx="114.1" cy="107.5" r="0.7"/><circle class="pt" cx="112.9" cy="109" r="0.7"/><circle class="pt" cx="111" cy="109" r="0.7"/><circle class="pt" cx="109.8" cy="107.6" r="0.7"/><circle class="pt" cx="110.2" cy="105.7" r="0.7"/><circle class="pt" cx="111.9" cy="104.8" r="0.7"/><circle class="pt" cx="113.6" cy="105.7" r="0.7"/><circle class="fin" fill="none" cx="111.9" cy="107" r="2.7"/><path class="fin" d="M114 130 Q116.2 121.1 118.3 110.8"/><circle class="pt" cx="118.3" cy="110.8" r="0.7"/><circle class="pt" cx="120.5" cy="111.2" r="0.7"/><circle class="pt" cx="119.3" cy="112.7" r="0.7"/><circle class="pt" cx="117.4" cy="112.8" r="0.7"/><circle class="pt" cx="116.2" cy="111.3" r="0.7"/><circle class="pt" cx="116.6" cy="109.4" r="0.7"/><circle class="pt" cx="118.3" cy="108.6" r="0.7"/><circle class="pt" cx="120" cy="109.4" r="0.7"/><circle class="fin" fill="none" cx="118.3" cy="110.8" r="2.7"/><path class="fin" d="M114 130 Q120.1 120.3 126.2 108.8"/><circle class="pt" cx="126.2" cy="108.8" r="0.7"/><circle class="pt" cx="128.3" cy="109.3" r="0.7"/><circle class="pt" cx="127.2" cy="110.8" r="0.7"/><circle class="pt" cx="125.3" cy="110.8" r="0.7"/><circle class="pt" cx="124.1" cy="109.3" r="0.7"/><circle class="pt" cx="124.5" cy="107.5" r="0.7"/><circle class="pt" cx="126.2" cy="106.6" r="0.7"/><circle class="pt" cx="127.9" cy="107.4" r="0.7"/><circle class="fin" fill="none" cx="126.2" cy="108.8" r="2.7"/><path class="fin" d="M114 130 Q121.7 122.5 129.4 114.2"/><circle class="pt" cx="129.4" cy="114.2" r="0.7"/><circle class="pt" cx="131.5" cy="114.7" r="0.7"/><circle class="pt" cx="130.4" cy="116.2" r="0.7"/><circle class="pt" cx="128.5" cy="116.2" r="0.7"/><circle class="pt" cx="127.2" cy="114.7" r="0.7"/><circle class="pt" cx="127.7" cy="112.9" r="0.7"/><circle class="pt" cx="129.4" cy="112" r="0.7"/><circle class="pt" cx="131.1" cy="112.8" r="0.7"/><circle class="fin" fill="none" cx="129.4" cy="114.2" r="2.7"/><path class="fin" d="M114 130 Q125.8 122.8 137.6 115.1"/><circle class="pt" cx="137.6" cy="115.1" r="0.7"/><circle class="pt" cx="139.8" cy="115.5" r="0.7"/><circle class="pt" cx="138.6" cy="117" r="0.7"/><circle class="pt" cx="136.7" cy="117.1" r="0.7"/><circle class="pt" cx="135.5" cy="115.6" r="0.7"/><circle class="pt" cx="135.9" cy="113.7" r="0.7"/><circle class="pt" cx="137.6" cy="112.9" r="0.7"/><circle class="pt" cx="139.3" cy="113.7" r="0.7"/><circle class="fin" fill="none" cx="137.6" cy="115.1" r="2.7"/><path class="fin" d="M114 130 Q125.4 125.2 136.8 120.9"/><circle class="pt" cx="136.8" cy="120.9" r="0.7"/><circle class="pt" cx="139" cy="121.3" r="0.7"/><circle class="pt" cx="137.8" cy="122.8" r="0.7"/><circle class="pt" cx="135.9" cy="122.9" r="0.7"/><circle class="pt" cx="134.7" cy="121.4" r="0.7"/><circle class="pt" cx="135.1" cy="119.5" r="0.7"/><circle class="pt" cx="136.8" cy="118.7" r="0.7"/><circle class="pt" cx="138.5" cy="119.5" r="0.7"/><circle class="fin" fill="none" cx="136.8" cy="120.9" r="2.7"/></g><circle class="pt" cx="154" cy="76" r="2.2"/><path class="fin" d="M154 84 q12 15 15 29"/><path class="fin" d="M154 84 q20 9 27 19"/><path class="fin" d="M154 84 q-12 15 -15 29"/><path class="fin" d="M154 84 q-20 9 -27 19"/><path class="fin" d="M154 84 q5.4 15 6.8 29"/><path class="fin" d="M154 84 q9 9 12.2 19"/><path class="fin" d="M154 84 q-5.4 15 -6.8 29"/><path class="fin" d="M154 84 q-9 9 -12.2 19"/><path class="fin" d="M114 131 q8.4 15 10.5 29"/><path class="fin" d="M114 131 q14 9 18.9 19"/><path class="fin" d="M114 131 q-8.4 15 -10.5 29"/><path class="fin" d="M114 131 q-14 9 -18.9 19"/><g class="vent" style="--o:162px 172px;--d:25s;--a1:-1deg;--a2:1deg;--r:-0s"><path d="M162 172 l-42.6 17.2"/><path class="fin" d="M157.7 173.7 Q146.4 169.7 140.9 163.3"/><path class="fin" d="M153.3 171 l0.8 -5.8"/><path class="fin" d="M153.3 171 l-4.9 3.3"/><path class="fin" d="M148.3 167.9 l0.7 -4.8"/><path class="fin" d="M148.3 167.9 l-4 2.7"/><path class="fin" d="M143.2 164.7 l0.5 -3.8"/><path class="fin" d="M143.2 164.7 l-3.2 2.2"/><path class="fin" d="M157.7 173.7 Q152.4 184.5 152.9 193"/><path class="fin" d="M156.5 178.7 l-5.8 1"/><path class="fin" d="M156.5 178.7 l4.6 3.6"/><path class="fin" d="M155 184.5 l-4.8 0.8"/><path class="fin" d="M155 184.5 l3.8 3"/><path class="fin" d="M153.6 190.3 l-3.8 0.7"/><path class="fin" d="M153.6 190.3 l3 2.4"/><path class="fin" d="M149.4 177.1 Q139.2 174.1 134.1 169.1"/><path class="fin" d="M145.4 175 l0.3 -5.1"/><path class="fin" d="M145.4 175 l-4 3.2"/><path class="fin" d="M140.8 172.6 l0.3 -4.2"/><path class="fin" d="M140.8 172.6 l-3.3 2.6"/><path class="fin" d="M136.2 170.2 l0.2 -3.3"/><path class="fin" d="M136.2 170.2 l-2.6 2.1"/><path class="fin" d="M149.4 177.1 Q144.1 186.3 143.9 193.5"/><path class="fin" d="M148 181.3 l-5.1 0.5"/><path class="fin" d="M148 181.3 l3.8 3.5"/><path class="fin" d="M146.3 186.3 l-4.2 0.4"/><path class="fin" d="M146.3 186.3 l3.1 2.9"/><path class="fin" d="M144.7 191.2 l-3.3 0.3"/><path class="fin" d="M144.7 191.2 l2.5 2.3"/><path class="fin" d="M141.1 180.4 Q132.2 178.4 127.6 174.6"/><path class="fin" d="M137.6 178.9 l-0.1 -4.4"/><path class="fin" d="M137.6 178.9 l-3.2 3"/><path class="fin" d="M133.5 177.2 l-0.1 -3.6"/><path class="fin" d="M133.5 177.2 l-2.6 2.5"/><path class="fin" d="M129.5 175.4 l-0 -2.9"/><path class="fin" d="M129.5 175.4 l-2.1 1.9"/><path class="fin" d="M141.1 180.4 Q136.1 188.1 135.4 194"/><path class="fin" d="M139.6 184 l-4.4 0.1"/><path class="fin" d="M139.6 184 l3 3.2"/><path class="fin" d="M137.9 188.1 l-3.6 0.1"/><path class="fin" d="M137.9 188.1 l2.5 2.6"/><path class="fin" d="M136.2 192.1 l-2.9 0.1"/><path class="fin" d="M136.2 192.1 l2 2.1"/><path class="fin" d="M132.8 183.8 Q125.2 182.6 121.3 179.8"/><path class="fin" d="M129.8 182.8 l-0.3 -3.6"/><path class="fin" d="M129.8 182.8 l-2.5 2.6"/><path class="fin" d="M126.3 181.6 l-0.3 -3"/><path class="fin" d="M126.3 181.6 l-2 2.2"/><path class="fin" d="M122.9 180.4 l-0.2 -2.4"/><path class="fin" d="M122.9 180.4 l-1.6 1.7"/><path class="fin" d="M132.8 183.8 Q128.2 189.9 127.2 194.6"/><path class="fin" d="M131.3 186.6 l-3.6 -0.2"/><path class="fin" d="M131.3 186.6 l2.3 2.8"/><path class="fin" d="M129.7 189.9 l-3 -0.2"/><path class="fin" d="M129.7 189.9 l1.9 2.3"/><path class="fin" d="M128 193.1 l-2.4 -0.1"/><path class="fin" d="M128 193.1 l1.5 1.8"/><path class="fin" d="M124.5 187.2 Q118.4 186.5 115.2 184.7"/><path class="fin" d="M122 186.5 l-0.5 -2.8"/><path class="fin" d="M122 186.5 l-1.8 2.2"/><path class="fin" d="M119.3 185.8 l-0.4 -2.3"/><path class="fin" d="M119.3 185.8 l-1.5 1.8"/><path class="fin" d="M116.5 185.1 l-0.3 -1.8"/><path class="fin" d="M116.5 185.1 l-1.2 1.5"/><path class="fin" d="M124.5 187.2 Q120.5 191.8 119.5 195.4"/><path class="fin" d="M123.2 189.3 l-2.8 -0.4"/><path class="fin" d="M123.2 189.3 l1.6 2.3"/><path class="fin" d="M121.7 191.8 l-2.3 -0.3"/><path class="fin" d="M121.7 191.8 l1.3 1.9"/><path class="fin" d="M120.2 194.2 l-1.9 -0.2"/><path class="fin" d="M120.2 194.2 l1.1 1.5"/></g><g class="vent" style="--o:166px 200px;--d:29s;--a1:-1deg;--a2:1deg;--r:-9s"><path d="M166 200 l35.7 13"/><path class="fin" d="M169.6 201.3 Q174.3 210.1 174.2 217"/><path class="fin" d="M170.8 205.4 l-3.7 3.1"/><path class="fin" d="M170.8 205.4 l4.8 0.7"/><path class="fin" d="M172.1 210.1 l-3.1 2.6"/><path class="fin" d="M172.1 210.1 l4 0.5"/><path class="fin" d="M173.5 214.8 l-2.4 2"/><path class="fin" d="M173.5 214.8 l3.1 0.4"/><path class="fin" d="M169.6 201.3 Q178.8 197.6 183.2 192.2"/><path class="fin" d="M173.1 198.9 l4.1 2.6"/><path class="fin" d="M173.1 198.9 l-0.8 -4.8"/><path class="fin" d="M177.2 196.2 l3.4 2.1"/><path class="fin" d="M177.2 196.2 l-0.7 -4"/><path class="fin" d="M181.3 193.5 l2.7 1.7"/><path class="fin" d="M181.3 193.5 l-0.5 -3.1"/><path class="fin" d="M176.5 203.8 Q181.2 211.3 181.5 217.2"/><path class="fin" d="M177.8 207.3 l-3 3"/><path class="fin" d="M177.8 207.3 l4.2 0.3"/><path class="fin" d="M179.3 211.3 l-2.5 2.5"/><path class="fin" d="M179.3 211.3 l3.5 0.2"/><path class="fin" d="M180.8 215.3 l-2 1.9"/><path class="fin" d="M180.8 215.3 l2.8 0.2"/><path class="fin" d="M176.5 203.8 Q184.9 201.1 189 196.8"/><path class="fin" d="M179.8 202 l3.4 2.5"/><path class="fin" d="M179.8 202 l-0.4 -4.2"/><path class="fin" d="M183.5 199.9 l2.8 2.1"/><path class="fin" d="M183.5 199.9 l-0.3 -3.5"/><path class="fin" d="M187.2 197.8 l2.2 1.6"/><path class="fin" d="M187.2 197.8 l-0.3 -2.8"/><path class="fin" d="M183.5 206.4 Q187.9 212.6 188.6 217.4"/><path class="fin" d="M184.8 209.2 l-2.4 2.7"/><path class="fin" d="M184.8 209.2 l3.6 -0.1"/><path class="fin" d="M186.3 212.6 l-2 2.2"/><path class="fin" d="M186.3 212.6 l3 -0"/><path class="fin" d="M187.9 215.9 l-1.6 1.8"/><path class="fin" d="M187.9 215.9 l2.4 -0"/><path class="fin" d="M183.5 206.4 Q190.8 204.4 194.5 201.2"/><path class="fin" d="M186.4 205 l2.7 2.4"/><path class="fin" d="M186.4 205 l-0.1 -3.6"/><path class="fin" d="M189.7 203.5 l2.3 1.9"/><path class="fin" d="M189.7 203.5 l-0.1 -3"/><path class="fin" d="M193 201.9 l1.8 1.5"/><path class="fin" d="M193 201.9 l-0.1 -2.4"/><path class="fin" d="M190.5 208.9 Q194.4 213.8 195.3 217.7"/><path class="fin" d="M191.7 211.2 l-1.8 2.4"/><path class="fin" d="M191.7 211.2 l3 -0.3"/><path class="fin" d="M193.2 213.8 l-1.5 2"/><path class="fin" d="M193.2 213.8 l2.5 -0.2"/><path class="fin" d="M194.7 216.5 l-1.2 1.6"/><path class="fin" d="M194.7 216.5 l1.9 -0.2"/><path class="fin" d="M190.5 208.9 Q196.7 207.7 199.8 205.3"/><path class="fin" d="M192.9 208 l2.1 2.1"/><path class="fin" d="M192.9 208 l0.2 -3"/><path class="fin" d="M195.7 206.9 l1.7 1.7"/><path class="fin" d="M195.7 206.9 l0.1 -2.5"/><path class="fin" d="M198.5 205.8 l1.4 1.4"/><path class="fin" d="M198.5 205.8 l0.1 -1.9"/><path class="fin" d="M197.4 211.4 Q200.8 215.2 201.8 218.1"/><path class="fin" d="M198.6 213.2 l-1.3 2"/><path class="fin" d="M198.6 213.2 l2.3 -0.4"/><path class="fin" d="M199.9 215.2 l-1.1 1.6"/><path class="fin" d="M199.9 215.2 l1.9 -0.3"/><path class="fin" d="M201.2 217.1 l-0.8 1.3"/><path class="fin" d="M201.2 217.1 l1.5 -0.2"/><path class="fin" d="M197.4 211.4 Q202.4 210.7 205 209.2"/><path class="fin" d="M199.4 210.8 l1.5 1.8"/><path class="fin" d="M199.4 210.8 l0.3 -2.3"/><path class="fin" d="M201.7 210.2 l1.3 1.5"/><path class="fin" d="M201.7 210.2 l0.2 -1.9"/><path class="fin" d="M204 209.5 l1 1.2"/><path class="fin" d="M204 209.5 l0.2 -1.5"/></g><g class="envol" style="--dx:-34px;--dy:-14px;--rot:18deg;--d:27s;--r:-0s"><circle class="pt" cx="115.3" cy="63.2" r="0.9"/><circle class="pt" cx="118.2" cy="63.9" r="0.9"/><circle class="pt" cx="116.6" cy="65.9" r="0.9"/><circle class="pt" cx="114" cy="66" r="0.9"/><circle class="pt" cx="112.3" cy="64" r="0.9"/><circle class="pt" cx="112.9" cy="61.4" r="0.9"/><circle class="pt" cx="115.2" cy="60.2" r="0.9"/><circle class="pt" cx="117.6" cy="61.3" r="0.9"/><circle class="fin" fill="none" cx="115.3" cy="63.2" r="3.7"/></g><g class="envol" style="--dx:-43px;--dy:-21px;--rot:25deg;--d:30s;--r:-7s"><circle class="pt" cx="139.5" cy="51.6" r="0.9"/><circle class="pt" cx="142.4" cy="52.3" r="0.9"/><circle class="pt" cx="140.8" cy="54.3" r="0.9"/><circle class="pt" cx="138.2" cy="54.4" r="0.9"/><circle class="pt" cx="136.6" cy="52.4" r="0.9"/><circle class="pt" cx="137.1" cy="49.8" r="0.9"/><circle class="pt" cx="139.4" cy="48.6" r="0.9"/><circle class="pt" cx="141.8" cy="49.7" r="0.9"/><circle class="fin" fill="none" cx="139.5" cy="51.6" r="3.7"/></g><g class="envol" style="--dx:52px;--dy:-28px;--rot:32deg;--d:33s;--r:-14s"><circle class="pt" cx="180.1" cy="48.1" r="0.9"/><circle class="pt" cx="183.1" cy="48.8" r="0.9"/><circle class="pt" cx="181.5" cy="50.8" r="0.9"/><circle class="pt" cx="178.9" cy="50.9" r="0.9"/><circle class="pt" cx="177.2" cy="48.8" r="0.9"/><circle class="pt" cx="177.8" cy="46.3" r="0.9"/><circle class="pt" cx="180.1" cy="45.1" r="0.9"/><circle class="pt" cx="182.4" cy="46.2" r="0.9"/><circle class="fin" fill="none" cx="180.1" cy="48.1" r="3.7"/></g><g class="envol" style="--dx:34px;--dy:-35px;--rot:39deg;--d:36s;--r:-21s"><circle class="pt" cx="205.5" cy="65.6" r="0.9"/><circle class="pt" cx="208.4" cy="66.2" r="0.9"/><circle class="pt" cx="206.8" cy="68.3" r="0.9"/><circle class="pt" cx="204.2" cy="68.3" r="0.9"/><circle class="pt" cx="202.6" cy="66.3" r="0.9"/><circle class="pt" cx="203.1" cy="63.8" r="0.9"/><circle class="pt" cx="205.4" cy="62.6" r="0.9"/><circle class="pt" cx="207.8" cy="63.7" r="0.9"/><circle class="fin" fill="none" cx="205.5" cy="65.6" r="3.7"/></g><g class="envol" style="--dx:-43px;--dy:-14px;--rot:46deg;--d:39s;--r:-28s"><circle class="pt" cx="98.1" cy="110.2" r="0.6"/><circle class="pt" cx="100.2" cy="110.6" r="0.6"/><circle class="pt" cx="99" cy="112.1" r="0.6"/><circle class="pt" cx="97.2" cy="112.1" r="0.6"/><circle class="pt" cx="96.1" cy="110.7" r="0.6"/><circle class="pt" cx="96.4" cy="108.9" r="0.6"/><circle class="pt" cx="98.1" cy="108.1" r="0.6"/><circle class="pt" cx="99.7" cy="108.9" r="0.6"/><circle class="fin" fill="none" cx="98.1" cy="110.2" r="2.6"/></g><g class="envol" style="--dx:-52px;--dy:-21px;--rot:53deg;--d:42s;--r:-35s"><circle class="pt" cx="129.4" cy="114.2" r="0.6"/><circle class="pt" cx="131.4" cy="114.7" r="0.6"/><circle class="pt" cx="130.3" cy="116.1" r="0.6"/><circle class="pt" cx="128.5" cy="116.1" r="0.6"/><circle class="pt" cx="127.3" cy="114.7" r="0.6"/><circle class="pt" cx="127.7" cy="112.9" r="0.6"/><circle class="pt" cx="129.4" cy="112.1" r="0.6"/><circle class="pt" cx="131" cy="112.9" r="0.6"/><circle class="fin" fill="none" cx="129.4" cy="114.2" r="2.6"/></g><circle class="pollen" cx="134" cy="66" r="1.5" style="--dx:-13px;--dy:-40px;animation-duration:24s;animation-delay:-0s"/><circle class="pollen" cx="168" cy="62" r="1.3" style="--dx:9px;--dy:-46px;animation-duration:27s;animation-delay:-3.7s"/><circle class="pollen" cx="152" cy="56" r="1.6" style="--dx:-4px;--dy:-44px;animation-duration:22s;animation-delay:-7.4s"/><circle class="pollen" cx="120" cy="116" r="1.2" style="--dx:7px;--dy:-38px;animation-duration:26s;animation-delay:-11.1s"/><circle class="pollen" cx="180" cy="72" r="1.2" style="--dx:12px;--dy:-42px;animation-duration:30s;animation-delay:-14.8s"/><circle class="pollen" cx="102" cy="120" r="1.4" style="--dx:-10px;--dy:-36px;animation-duration:23s;animation-delay:-18.5s"/></g></g></svg>